<?xml version="1.0" encoding="utf-8"?>
<!-- Generator: Adobe Illustrator 22.1.0, SVG Export Plug-In . SVG Version: 6.00 Build 0)  -->
<svg version="1.1" id="Logo" xmlns="http://www.w3.org/2000/svg" xmlns:xlink="http://www.w3.org/1999/xlink" x="0px" y="0px"
	 viewBox="0 0 179.9 204.2" style="enable-background:new 0 0 179.9 204.2;" xml:space="preserve">
<style type="text/css">
	.st0{fill:#FFFFFF;stroke:#E6EEED;stroke-miterlimit:10;}
	.st1{fill:none;stroke:#E6EEED;stroke-miterlimit:10;}
	.st2{fill:url(#eye_1_);stroke:#E6EEED;stroke-miterlimit:10;}
</style>
<circle class="st0" cx="139.7" cy="35.7" r="11.7"/>
<path class="st1" d="M129.5,59.7c-30.7-23.8-31.6-48.3-30.2-59c-3.5,2.3-6,9.7-6.8,12c-2.5,7.2-3.8,15.8-0.8,23
	c2.4,5.9,8,14.7,11.3,20.1c4.8,7.7,5.4,14.2,13,19.8c5.4,3.8,12.3,5.1,18.7,3.5c3.1-0.8,7.3-1.7,11.2-2.6c4-1.4,8.2-2,12.2-3.2
	c4.3-1.3,9.9-2.2,14.2-4.3C157.4,70.7,141.6,69.1,129.5,59.7L129.5,59.7z"/>
<path class="st1" d="M173.4,42.3c-6.2-8-14.8-17.1-23.4-22.5c-6.1-3.8-13.1-5.4-20-7.4c-10.7-3.2-17.2-8.9-27.7-12.2
	c-1-0.3-2.2-0.1-3.1,0.5c-1.4,10.7-0.5,35.2,30.2,59c12.1,9.4,27.9,11,43,9.4c3.1-1.4,5.6-3.5,6.7-6.6
	C181.6,55.5,177.6,47.6,173.4,42.3L173.4,42.3z M139.7,50.4c-8.1,0-14.7-6.6-14.7-14.7S131.6,21,139.7,21s14.7,6.6,14.7,14.7
	S147.8,50.4,139.7,50.4z"/>
<linearGradient id="eye_1_" gradientUnits="userSpaceOnUse" x1="312.694" y1="765.4925" x2="315.444" y2="755.4925" gradientTransform="matrix(1 0 0 1 -172.86 -729.42)">
	<stop  offset="3.000000e-02" style="stop-color:#000000"/>
	<stop  offset="0.16" style="stop-color:#040404"/>
	<stop  offset="0.28" style="stop-color:#101010"/>
	<stop  offset="0.4" style="stop-color:#242424"/>
	<stop  offset="0.52" style="stop-color:#404040"/>
	<stop  offset="0.64" style="stop-color:#646464"/>
	<stop  offset="0.76" style="stop-color:#909090"/>
	<stop  offset="0.88" style="stop-color:#C4C4C4"/>
	<stop  offset="1" style="stop-color:#FFFFFF"/>
</linearGradient>
<path id="eye" class="st2" d="M145,28.8c-0.5,1.8-2.4,2.8-4.1,2.2c-1.4-0.4-2.4-1.7-2.4-3.2c0-0.2,0-0.4,0.1-0.6
	c-4.7,0.7-7.8,5.1-7.1,9.8s5.1,7.8,9.8,7.1s7.8-5.1,7.1-9.8C148,32.1,146.8,30.1,145,28.8L145,28.8z"/>
<path class="st1" d="M109.4,81.7c0,0-2.9,9.5-9.1,14.5c0,0,23.7,1.8,28.2-7.3C128.5,88.9,110.7,89.6,109.4,81.7z"/>
<path class="st1" d="M85.9,119.5c0,0-1.6,9.8-7.1,15.6c0,0,23.7-1.3,27-11C105.8,124.1,88.3,127.2,85.9,119.5z"/>
<path class="st1" d="M75.7,55.2c-10.3-13.8-6-23.2-1.5-28.3c-5.5,2.2-10.6,5.2-15.2,8.8c-10.8,9,2.4,28,7.4,33.5
	c7,7.7,19.9,20,20.1,34.6c0,0,0.8-0.6,2-1.6C96.1,90.4,90.7,75.2,75.7,55.2z"/>
<path class="st1" d="M98.5,61.7C85.2,42.8,79.1,34.8,86.1,22.8c-4.1,1.1-8.1,2.4-11.9,4.1c-4.5,5.1-8.8,14.5,1.5,28.3
	c15,20,20.4,35.2,12.8,47C94.7,97.1,111.6,80.4,98.5,61.7z"/>
<path class="st1" d="M47.7,80.2C36.6,69.6,34.4,62.9,34.2,59.5c-2.5,3.6-4.5,7.5-5.9,11.6c-5.9,17.4,20.2,30.6,29.4,36.4
	s17.1,14.6,17.4,22.6c0,0,0.4-0.5,0.9-1.5C77,110.9,62.9,94.8,47.7,80.2z"/>
<path class="st1" d="M81,101.2c-3.6-15.7-32.2-31.8-31.3-56.9c-6.1,4-11.4,9.2-15.6,15.2c0.2,3.4,2.4,10.2,13.5,20.8
	C62.9,94.9,77,111,76,128.8C78.4,124.8,83.9,113.8,81,101.2z"/>
<path class="st1" d="M47.4,123.3c-19.1-9-26-18.6-28.3-25.6c-0.3,2.9-0.4,5.7-0.4,8.6c0.4,13.3,13.4,23.3,19.8,29.1
	C47,143,58.3,150.6,65,158c2.3-5.2,4-10.6,5-16.2C66.5,135.7,59.8,129.1,47.4,123.3z"/>
<path class="st1" d="M67.2,123.7c-11.6-16-44-22.4-44.4-42.9c-1.9,5.5-3.1,11.2-3.7,16.9c2.3,7,9.2,16.5,28.3,25.6
	c12.4,5.9,19.1,12.5,22.5,18.6C71,135.6,70.8,128.6,67.2,123.7z"/>
<path class="st1" d="M23,170.4c0,0-21.6-31.9-8-85.1c13.6-53.5,69.9-68.2,69.9-68.2l-12.5-2.2l1.1,2.8H62.1l1.9,2.7l-11.3,0.9
	l2.7,3.3l-14.1,1.9l5,3.3l-13.9,3.6l6.4,3l-13.6,4.4l5.5,3.1l-12.7,7l5.5,1.7l-11.9,8.6l5.6,0.8L6.7,71.4h7.5L3.1,82.7l6.1-0.6
	L0.8,95.8l5.8-1.9L0,109.6l5-2.5l-3.3,15l3.6-3.9l-1.9,15.2l3.9-2.5C7.2,131,8,149.3,23,170.4z"/>
<path class="st1" d="M71.5,193.9c14,6.6,33.5,2.2,42.2-11.9c6.6-10.6,2.5-28.9-10.6-31.3c9.7,3.9,13.8,15.3,10.1,25.1
	c-2.1,5.1-5.9,9.4-10.7,12.2c-8.5,4.6-20.9,4.3-28.8-1.5c-5.3-4-9-9.8-10.4-16.3c-0.2-1-0.4-2-0.5-3c-0.1-0.7,0-2.9-0.4-3.4
	c-5.9-6.5-15.9-13.9-25.1-21.6C39.4,160.5,53.3,185.4,71.5,193.9z"/>
<path class="st1" d="M97.3,143.8c-24.9,0.4-28,31.2-12.8,38.1c14.5,6.6,26.7-8.6,21.6-18.2c-3.1-6-12.1-8.6-17.5-4.2
	c-3,2.5-3.7,5.1-3.7,6.9c0,2.3,1,4.4,2.7,5.9c1.1,0.9,2.5,1.4,4,1.4c1,0,2-0.2,2.9-0.7c1.9-1,2.9-3.1,2.6-5.2
	c-0.1-1.2-1.2-2.1-2.4-2c-1.2,0.2-2.1,1.3-2,2.5c0,0.4-0.1,0.6-0.3,0.7c-0.6,0.3-1.4,0.2-2-0.2c-0.7-0.6-1.1-1.4-1.1-2.3
	c0.2-1.4,0.9-2.6,2.1-3.4c1.1-0.9,3.8-1.1,5.1-0.9c1.7,0.3,3.2,1.2,4.2,2.6c2,2.6,2.1,6.1,0.2,8.8c-1,1.5-2.3,2.8-3.7,3.8
	c-4.9,3-12.5,1.8-15.4-4.6c-6.6-14.8,7.8-25.2,18.4-22.9c1,0.2,1.9,0.5,2.8,0.9c13.1,2.4,17.2,20.7,10.6,31.3
	c-8.7,14.1-28.1,18.4-42.2,11.9c-18.2-8.5-32.1-33.4-34.2-51.7c-10.7-9-20.3-18.4-20.7-27.2C15,132,22.2,156,31.5,171
	c8.5,13.6,24.8,27.6,40.1,31.2c15.5,3.7,29,2.9,40.9-8.7C132.9,173.6,118.7,143.4,97.3,143.8z"/>
</svg>
