<svg id="Shape" xmlns="http://www.w3.org/2000/svg" xmlns:xlink="http://www.w3.org/1999/xlink" viewBox="0 0 179.9 204.16"><defs><style>.cls-1{fill:#e6e7e8;stroke:#231f20;stroke-linecap:round;stroke-miterlimit:10;}.cls-2{fill:none;}.cls-3{fill:url(#linear-gradient);}.cls-4{fill:url(#linear-gradient-2);}.cls-5{fill:url(#linear-gradient-3);}.cls-6{fill:url(#linear-gradient-4);}.cls-7{fill:url(#linear-gradient-5);}.cls-8{fill:url(#linear-gradient-6);}.cls-9{fill:url(#linear-gradient-7);}.cls-10{fill:url(#linear-gradient-8);}.cls-11{fill:url(#linear-gradient-9);}.cls-12{fill:url(#linear-gradient-10);}.cls-13{fill:url(#linear-gradient-11);}.cls-14{fill:url(#linear-gradient-12);}.cls-15{fill:url(#linear-gradient-13);}.cls-16{fill:url(#linear-gradient-14);}</style><linearGradient id="linear-gradient" x1="328.37" y1="263.05" x2="285.37" y2="184.05" gradientUnits="userSpaceOnUse"><stop offset="0" stop-color="#40e0d0"/><stop offset="0.51" stop-color="#ff9f1c"/><stop offset="0.87" stop-color="#f25f5c"/></linearGradient><linearGradient id="linear-gradient-2" x1="268.61" y1="175.97" x2="340.61" y2="226.97" gradientUnits="userSpaceOnUse"><stop offset="0.12" stop-color="#f25f5c"/><stop offset="0.46" stop-color="#ff9f1c"/><stop offset="1" stop-color="#40e0d0"/></linearGradient><linearGradient id="linear-gradient-3" x1="312.65" y1="204.28" x2="315.4" y2="194.28" gradientUnits="userSpaceOnUse"><stop offset="0.03"/><stop offset="0.16" stop-color="#040404"/><stop offset="0.28" stop-color="#101010"/><stop offset="0.4" stop-color="#242424"/><stop offset="0.52" stop-color="#404040"/><stop offset="0.64" stop-color="#646464"/><stop offset="0.76" stop-color="#909090"/><stop offset="0.88" stop-color="#c4c4c4"/><stop offset="1" stop-color="#fff"/></linearGradient><linearGradient id="linear-gradient-4" x1="296.21" y1="260.56" x2="265.54" y2="253.56" gradientUnits="userSpaceOnUse"><stop offset="0.13" stop-color="#f25f5c"/><stop offset="0.49" stop-color="#ff9f1c"/><stop offset="1" stop-color="#40e0d0"/></linearGradient><linearGradient id="linear-gradient-5" x1="280.73" y1="300.42" x2="248.07" y2="293.08" xlink:href="#linear-gradient-4"/><linearGradient id="linear-gradient-6" x1="218.8" y1="203.25" x2="293.47" y2="267.25" gradientUnits="userSpaceOnUse"><stop offset="0.1" stop-color="#f25f5c"/><stop offset="0.47" stop-color="#ff9f1c"/><stop offset="0.76" stop-color="#40e0d0"/></linearGradient><linearGradient id="linear-gradient-7" x1="257.29" y1="184.51" x2="260.62" y2="254.52" gradientUnits="userSpaceOnUse"><stop offset="0.11" stop-color="#f25f5c"/><stop offset="0.44" stop-color="#ff9f1c"/><stop offset="1" stop-color="#40e0d0"/></linearGradient><linearGradient id="linear-gradient-8" x1="210.85" y1="249.01" x2="259.85" y2="287.91" gradientUnits="userSpaceOnUse"><stop offset="0.11" stop-color="#f25f5c"/><stop offset="0.44" stop-color="#ff9f1c"/><stop offset="0.76" stop-color="#40e0d0"/></linearGradient><linearGradient id="linear-gradient-9" x1="212.12" y1="220.58" x2="249.53" y2="273.32" gradientUnits="userSpaceOnUse"><stop offset="0.14" stop-color="#f25f5c"/><stop offset="0.43" stop-color="#ff9f1c"/><stop offset="1" stop-color="#40e0d0"/></linearGradient><linearGradient id="linear-gradient-10" x1="195.86" y1="284.16" x2="255.26" y2="318.81" gradientUnits="userSpaceOnUse"><stop offset="0" stop-color="#f25f5c"/><stop offset="0.48" stop-color="#ff9f1c"/><stop offset="0.84" stop-color="#40e0d0"/></linearGradient><linearGradient id="linear-gradient-11" x1="200.81" y1="245.84" x2="235.81" y2="319.84" gradientUnits="userSpaceOnUse"><stop offset="0.11" stop-color="#f25f5c"/><stop offset="0.43" stop-color="#ff9f1c"/><stop offset="0.86" stop-color="#40e0d0"/></linearGradient><linearGradient id="linear-gradient-12" x1="171.88" y1="298.44" x2="244.66" y2="224.63" gradientUnits="userSpaceOnUse"><stop offset="0.03" stop-color="#00c0b9"/><stop offset="0.28" stop-color="#40e0d0"/><stop offset="0.54" stop-color="#f25f5c"/><stop offset="1" stop-color="#ff9f1c"/></linearGradient><linearGradient id="linear-gradient-13" x1="287.66" y1="363.96" x2="209.66" y2="294.46" gradientUnits="userSpaceOnUse"><stop offset="0" stop-color="#40e0d0"/><stop offset="0.49" stop-color="#ff9f1c"/><stop offset="1" stop-color="#f25f5c"/></linearGradient><linearGradient id="linear-gradient-14" x1="190.95" y1="321.58" x2="282.95" y2="337.58" gradientUnits="userSpaceOnUse"><stop offset="0" stop-color="#ff9f1c"/><stop offset="0.44" stop-color="#f25f5c"/><stop offset="1" stop-color="#40e0d0"/></linearGradient></defs><title>Final_Logo</title><circle class="cls-1" cx="139.7" cy="35.66" r="14.72"/><path class="cls-2" d="M277.8,225.13a48.54,48.54,0,0,0-2.22-4.45Q276.72,222.87,277.8,225.13Z" transform="translate(-172.86 -167.42)"/><path class="cls-3" d="M302.34,227.1c-30.67-23.76-31.6-48.3-30.19-59-3.47,2.29-6,9.67-6.77,12-2.45,7.18-3.77,15.79-.78,23,2.44,5.89,8,14.69,11.32,20.06,4.83,7.7,5.42,14.18,13,19.83a23,23,0,0,0,18.71,3.52c3.09-.76,7.32-1.71,11.24-2.56,4-1.41,8.22-2,12.23-3.2,4.33-1.29,9.87-2.21,14.24-4.27C330.26,238.12,314.45,236.49,302.34,227.1Z" transform="translate(-172.86 -167.42)"/><path class="cls-4" d="M346.3,209.72c-6.21-8-14.77-17.14-23.4-22.47-6.13-3.79-13.12-5.41-19.95-7.44-10.71-3.18-17.21-8.85-27.74-12.23a3.47,3.47,0,0,0-3.06.52c-1.41,10.7-.48,35.24,30.19,59,12.11,9.39,27.92,11,43,9.37,3.09-1.45,5.6-3.48,6.68-6.62C354.43,222.91,350.46,215.06,346.3,209.72Zm-33.73,8.09a14.73,14.73,0,1,1,14.72-14.73A14.73,14.73,0,0,1,312.57,217.81Z" transform="translate(-172.86 -167.42)"/><path class="cls-5" d="M317.85,197a3.32,3.32,0,0,1-6.5-1,3.93,3.93,0,0,1,.06-.6,8.56,8.56,0,1,0,6.44,1.57Z" transform="translate(-172.86 -167.42)"/><path class="cls-6" d="M282.24,249.07s-2.93,9.45-9.11,14.54c0,0,23.69,1.84,28.22-7.33C301.35,256.28,283.6,257,282.24,249.07Z" transform="translate(-172.86 -167.42)"/><path class="cls-7" d="M258.78,286.88s-1.64,9.76-7.09,15.62c0,0,23.72-1.33,27-11C278.68,291.47,261.18,294.58,258.78,286.88Z" transform="translate(-172.86 -167.42)"/><path class="cls-8" d="M248.58,222.59c-10.29-13.77-6-23.22-1.51-28.29a61.61,61.61,0,0,0-15.18,8.84c-10.81,9,2.36,28,7.4,33.47,7,7.67,19.9,20,20.09,34.6,0,0,.79-.56,2-1.59C269,257.79,263.56,242.64,248.58,222.59Z" transform="translate(-172.86 -167.42)"/><path class="cls-9" d="M271.33,229.13C258.06,210.24,252,202.2,259,190.23a86.41,86.41,0,0,0-11.93,4.07c-4.5,5.07-8.78,14.52,1.51,28.29,15,20,20.37,35.2,12.83,47C267.51,264.53,284.48,247.85,271.33,229.13Z" transform="translate(-172.86 -167.42)"/><path class="cls-10" d="M220.52,247.65c-11.06-10.59-13.31-17.31-13.5-20.75a47,47,0,0,0-5.91,11.62c-5.87,17.39,20.16,30.64,29.45,36.43s17.07,14.59,17.45,22.63c0,0,.37-.52.93-1.47C249.87,278.31,235.78,262.24,220.52,247.65Z" transform="translate(-172.86 -167.42)"/><path class="cls-11" d="M253.88,268.6c-3.6-15.72-32.23-31.8-31.28-56.86A57,57,0,0,0,207,226.9c.19,3.44,2.44,10.16,13.5,20.75,15.26,14.59,29.35,30.66,28.42,48.46C251.24,292.25,256.78,281.21,253.88,268.6Z" transform="translate(-172.86 -167.42)"/><path class="cls-12" d="M220.3,290.69c-19.14-9-26-18.64-28.34-25.59a61.87,61.87,0,0,0-.37,8.6C192,287,205,297,211.39,302.8c8.43,7.62,19.75,15.23,26.48,22.65a67.53,67.53,0,0,0,5-16.16C239.37,303.16,232.68,296.54,220.3,290.69Z" transform="translate(-172.86 -167.42)"/><path class="cls-13" d="M240.09,291.08c-11.55-16-44-22.42-44.36-42.92A78.58,78.58,0,0,0,192,265.1c2.3,6.95,9.2,16.55,28.34,25.59,12.38,5.85,19.07,12.47,22.54,18.6C243.85,303,243.69,296.06,240.09,291.08Z" transform="translate(-172.86 -167.42)"/><path class="cls-14" d="M195.87,337.8s-21.56-31.86-8-85.1c13.58-53.5,69.85-68.19,69.85-68.19l-12.47-2.22,1.11,2.78H235l1.87,2.7-11.29.9L228.3,192l-14.14,1.94,5,3.32-13.86,3.61,6.38,3-13.58,4.43,5.54,3.05-12.75,6.93,5.54,1.66-11.92,8.59,5.55.84-10.54,9.42H187l-11.09,11.37,6.1-.56-8.32,13.58,5.82-1.94-6.65,15.8,5-2.49-3.32,15,3.6-3.89-1.94,15.25,3.88-2.49S180.9,316.73,195.87,337.8Z" transform="translate(-172.86 -167.42)"/><path class="cls-15" d="M244.34,361.29c14,6.57,33.5,2.2,42.2-11.87,6.57-10.62,2.46-28.88-10.6-31.3,9.69,3.88,13.78,15.34,10.07,25.07a25.47,25.47,0,0,1-10.66,12.16c-8.47,4.63-20.87,4.26-28.79-1.53a27.48,27.48,0,0,1-10.4-16.3c-.21-1-.37-2-.51-2.95-.09-.67,0-2.9-.42-3.36-5.9-6.53-15.91-13.91-25.07-21.58C212.29,327.88,226.16,352.79,244.34,361.29Z" transform="translate(-172.86 -167.42)"/><path class="cls-16" d="M270.18,311.17c-24.91.44-28,31.18-12.84,38.08,14.48,6.58,26.67-8.63,21.6-18.23-3.15-6-12.08-8.62-17.45-4.19-3.05,2.52-3.71,5.15-3.72,6.92a7.73,7.73,0,0,0,2.71,5.86,6.14,6.14,0,0,0,4,1.41,6,6,0,0,0,2.93-.74,5.14,5.14,0,0,0,2.59-5.21,2.22,2.22,0,0,0-2.44-2,2.25,2.25,0,0,0-1.95,2.51c0,.43-.06.57-.3.7a1.93,1.93,0,0,1-2-.18,3,3,0,0,1-1.1-2.31,4.86,4.86,0,0,1,2.06-3.39c1.09-.9,3.81-1.11,5.15-.93a6.43,6.43,0,0,1,4.17,2.59,7.37,7.37,0,0,1,.23,8.8,14.86,14.86,0,0,1-3.72,3.82c-4.89,3-12.55,1.82-15.39-4.56-6.62-14.83,7.82-25.25,18.43-22.86a18.91,18.91,0,0,1,2.82.87c13.06,2.42,17.17,20.68,10.6,31.3-8.7,14.07-28.15,18.44-42.2,11.87-18.18-8.5-32.05-33.41-34.18-51.66-10.72-9-20.27-18.35-20.69-27.19-1.5,16.93,5.68,40.88,15,55.92C213,352,229.29,366,244.58,369.62c15.51,3.7,29,2.89,40.86-8.73C305.81,341,291.53,310.79,270.18,311.17Z" transform="translate(-172.86 -167.42)"/></svg>